# Rhino

g object_1
v 0 0 9
v 0 1 9
v 1.495651245117188 0 8.148722648620606
v 1.495651245117188 1 8.148722648620606
v 1.495651245117188 0 8.148722648620606
v 1.495651245117188 1 8.148722648620606
v 2.921030282974243 0 7.360066413879395
v 2.921030282974243 1 7.360066413879395
v 4.444306373596191 0 6.556665420532227
v 4.444306373596191 1 6.556665420532227
v 5.890365123748779 0 5.835766792297363
v 5.890365123748779 1 5.835766792297363
v 7.393553733825684 0 5.131348609924316
v 7.393553733825684 1 5.131348609924316
v 8.919953346252441 0 4.464516639709473
v 8.919953346252441 1 4.464516639709473
v 10.46362590789795 0 3.83753228187561
v 10.46362590789795 1 3.83753228187561
v 12.02738761901856 0 3.250981569290161
v 12.02738761901856 1 3.250981569290161
v 13.6046838760376 0 2.708897113800049
v 13.6046838760376 1 2.708897113800049
v 15.14999961853027 0 2.2260582447052
v 15.14999961853027 1 2.2260582447052
v 16.80454063415527 0 1.762034893035889
v 16.80454063415527 1 1.762034893035889
v 18.41164779663086 0 1.364288449287415
v 18.41164779663086 1 1.364288449287415
v 20.03842926025391 0 1.017732262611389
v 20.03842926025391 1 1.017732262611389
v 21.6660327911377 0 0.7213340997695923
v 21.6660327911377 1 0.7213340997695923
v 23.29013824462891 0 0.4754177331924439
v 23.29013824462891 1 0.4754177331924439
v 25 0 0.25
v 25 1 0.25
vt 0 0
vt 0 1
vt 0.02783496305346489 0
vt 0.02783496305346489 1
vt 0.02783496305346489 0
vt 0.02783496305346489 1
vt 0.06190336123108864 0
vt 0.06190336123108864 1
vt 0.1114523038268089 0
vt 0.1114523038268089 1
vt 0.1720448285341263 0
vt 0.1720448285341263 1
vt 0.2446784973144531 0
vt 0.2446784973144531 1
vt 0.3209976851940155 0
vt 0.3209976851940155 1
vt 0.3981813192367554 0
vt 0.3981813192367554 1
vt 0.4763693511486054 0
vt 0.4763693511486054 1
vt 0.5552341938018799 0
vt 0.5552341938018799 1
vt 0.6324999928474426 0
vt 0.6324999928474426 1
vt 0.7152270078659058 0
vt 0.7152270078659058 1
vt 0.7950934171676636 0
vt 0.7950934171676636 1
vt 0.8681296706199646 0
vt 0.8681296706199646 1
vt 0.9262378215789795 0
vt 0.9262378215789795 1
vt 0.9676072597503662 0
vt 0.9676072597503662 1
vt 1 0
vt 1 1
vn 0.4984711110591888 0 0.8669062852859497
vn 0.4984711110591888 0 0.8669062852859497
vn 0.4901565313339233 0 0.8716344237327576
vn 0.4901565313339233 0 0.8716344237327576
vn 0.4901565313339233 0 0.8716344237327576
vn 0.4901565313339233 0 0.8716344237327576
vn 0.4769324362277985 0 0.8789399862289429
vn 0.4769324362277985 0 0.8789399862289429
vn 0.4552208483219147 0 0.8903785943984985
vn 0.4552208483219147 0 0.8903785943984985
vn 0.4364312589168549 0 0.8997375965118408
vn 0.4364312589168549 0 0.8997375965118408
vn 0.4120019376277924 0 0.9111829400062561
vn 0.4120019376277924 0 0.9111829400062561
vn 0.3884861171245575 0 0.9214546084403992
vn 0.3884861171245575 0 0.9214546084403992
vn 0.3639333248138428 0 0.9314249753952026
vn 0.3639333248138428 0 0.9314249753952026
vn 0.3382631242275238 0 0.9410516023635864
vn 0.3382631242275238 0 0.9410516023635864
vn 0.3115828037261963 0 0.9502189755439758
vn 0.3115828037261963 0 0.9502189755439758
vn 0.2847084105014801 0 0.9586141705513001
vn 0.2847084105014801 0 0.9586141705513001
vn 0.255172610282898 0 0.9668955206871033
vn 0.255172610282898 0 0.9668955206871033
vn 0.2243029773235321 0 0.9745194315910339
vn 0.2243029773235321 0 0.9745194315910339
vn 0.193930521607399 0 0.9810152649879456
vn 0.193930521607399 0 0.9810152649879456
vn 0.1628865450620651 0 0.9866448044776917
vn 0.1628865450620651 0 0.9866448044776917
vn 0.1386799961328507 0 0.9903372526168823
vn 0.1386799961328507 0 0.9903372526168823
vn 0.1240347325801849 0 0.9922778606414795
vn 0.1240347325801849 0 0.9922778606414795
f 4/4/4 2/2/2 1/1/1 3/3/3
f 8/8/8 6/6/6 5/5/5 7/7/7
f 10/10/10 8/8/8 7/7/7 9/9/9
f 12/12/12 10/10/10 9/9/9 11/11/11
f 14/14/14 12/12/12 11/11/11 13/13/13
f 16/16/16 14/14/14 13/13/13 15/15/15
f 18/18/18 16/16/16 15/15/15 17/17/17
f 20/20/20 18/18/18 17/17/17 19/19/19
f 22/22/22 20/20/20 19/19/19 21/21/21
f 24/24/24 22/22/22 21/21/21 23/23/23
f 26/26/26 24/24/24 23/23/23 25/25/25
f 28/28/28 26/26/26 25/25/25 27/27/27
f 30/30/30 28/28/28 27/27/27 29/29/29
f 32/32/32 30/30/30 29/29/29 31/31/31
f 34/34/34 32/32/32 31/31/31 33/33/33
f 36/36/36 34/34/34 33/33/33 35/35/35
