# Rhino

g object_1
v 149.7954254150391 -67.02126312255859 -0.9659548997879028
v 160.2252502441406 -66.97459411621094 -0.9668235182762146
v 149.7954254150391 -77.32343292236328 -0.2414887249469757
v 149.7954254150391 -56.71909332275391 -2.173398494720459
v 160.2252502441406 -56.64909362792969 -2.175352811813355
v 170.6550750732422 -66.92793273925781 -0.8271576166152954
v 160.2252502441406 -77.30010223388672 -0.2417058795690537
v 170.6550750732422 -77.27677154541016 -0.2067894041538239
vn -0.0003498587175272405 0.09323941916227341 0.995643675327301
vn -0.004460068885236979 0.07909844070672989 0.9968568086624146
vn -0.0001833180576795712 0.07010084390640259 0.9975398778915405
vn -0.0005162107991054654 0.1163277328014374 0.9932107329368591
vn -0.0005162107991054654 0.1163277328014374 0.9932107329368591
vn -0.008569305762648583 0.0649401992559433 0.9978523850440979
vn -0.004376364871859551 0.06752134114503861 0.997708261013031
vn -0.008569305762648583 0.0649401992559433 0.9978523850440979
f 7//7 2//2 1//1 3//3
f 2//2 5//5 4//4 1//1
f 8//8 6//6 2//2 7//7
